<?xml version="1.0" standalone="no"?>
<!DOCTYPE svg PUBLIC "-//W3C//DTD SVG 20010904//EN"
 "http://www.w3.org/TR/2001/REC-SVG-20010904/DTD/svg10.dtd">
<svg version="1.0" xmlns="http://www.w3.org/2000/svg"
 width="64.000000pt" height="64.000000pt" viewBox="0 0 64.000000 64.000000"
 preserveAspectRatio="xMidYMid meet">
<metadata>
Created by potrace 1.16, written by Peter Selinger 2001-2019
</metadata>
<g transform="translate(0.000000,64.000000) scale(0.100000,-0.100000)"
fill="#000000" stroke="none">
<path d="M20 590 c0 -27 3 -30 30 -30 17 0 30 5 30 10 0 6 26 10 59 10 51 0
62 -3 76 -22 14 -21 14 -24 -7 -40 -23 -17 -79 -15 -86 4 -2 4 -17 8 -33 8
-26 0 -29 -4 -29 -30 0 -26 3 -30 29 -30 16 0 31 6 34 13 3 9 7 9 17 0 10 -9
8 -18 -9 -42 -21 -30 -51 -42 -51 -21 0 6 -13 10 -30 10 -27 0 -30 -3 -30 -30
0 -27 3 -30 30 -30 17 0 30 5 30 10 0 6 5 10 10 10 6 0 10 -30 10 -70 0 -40
-4 -70 -10 -70 -5 0 -10 5 -10 10 0 6 -13 10 -30 10 -27 0 -30 -3 -30 -30 0
-27 3 -30 30 -30 17 0 30 5 30 10 0 20 27 9 49 -21 18 -24 20 -33 11 -42 -10
-9 -14 -9 -17 1 -3 6 -18 12 -34 12 -26 0 -29 -4 -29 -30 0 -26 3 -30 29 -30
16 0 31 4 33 8 7 19 63 21 86 4 21 -16 21 -19 7 -40 -14 -19 -25 -22 -76 -22
-33 0 -59 4 -59 10 0 6 -13 10 -30 10 -27 0 -30 -3 -30 -30 0 -27 3 -30 30
-30 17 0 30 5 30 10 0 6 31 10 73 10 69 0 73 1 92 30 18 27 25 30 75 30 50 0
57 -3 75 -30 19 -29 23 -30 93 -30 41 0 72 -4 72 -10 0 -5 14 -10 30 -10 27 0
30 3 30 30 0 27 -3 30 -30 30 -16 0 -30 -4 -30 -10 0 -6 -26 -10 -59 -10 -51
0 -62 3 -76 22 -14 21 -14 24 7 40 23 17 79 15 86 -4 2 -4 17 -8 33 -8 26 0
29 4 29 30 0 26 -3 30 -29 30 -16 0 -31 -6 -34 -12 -3 -10 -7 -10 -17 -1 -10
9 -8 18 9 42 21 30 51 42 51 21 0 -5 14 -10 30 -10 27 0 30 3 30 30 0 27 -3
30 -30 30 -16 0 -30 -4 -30 -10 0 -5 -4 -10 -10 -10 -6 0 -10 30 -10 70 0 40
4 70 10 70 6 0 10 -4 10 -10 0 -5 14 -10 30 -10 27 0 30 3 30 30 0 27 -3 30
-30 30 -16 0 -30 -4 -30 -10 0 -20 -27 -9 -49 21 -18 24 -20 33 -11 42 10 9
14 9 17 0 3 -7 18 -13 34 -13 26 0 29 4 29 30 0 26 -3 30 -29 30 -16 0 -31 -4
-33 -8 -7 -19 -63 -21 -86 -4 -21 16 -21 19 -7 40 14 19 25 22 76 22 33 0 59
-4 59 -10 0 -5 14 -10 30 -10 27 0 30 3 30 30 0 27 -3 30 -30 30 -16 0 -30 -4
-30 -10 0 -6 -31 -10 -72 -10 -70 0 -74 -1 -93 -30 -18 -27 -25 -30 -75 -30
-50 0 -57 3 -75 30 -19 29 -23 30 -92 30 -42 0 -73 4 -73 10 0 6 -13 10 -30
10 -27 0 -30 -3 -30 -30z"/>
</g>
</svg>
